<svg xmlns="http://www.w3.org/2000/svg">
<symbol id="big-data" viewBox="0 0 24 24">
  <path d="M.5 7.5h9v16h-9zM1.5 3.5h7v4h-7zM16.5 9.5h7v14h-7zM17.5 6.5h5v3h-5z"/>
  <path d="M3.5 21.5h2v2h-2zM19.5 21.5h2v2h-2zM4.5 3.5v-3M9.5 13.5h7M9.5 23.5h7M3.5 5.5h3M2.5 9.5h5M2.5 11.5h5M2.5 13.5h5M2.5 15.5h5M2.5 17.5h5M2.5 19.5h5M18.5 11.5h3M18.5 13.5h3M18.5 15.5h3M18.5 17.5h3M18.5 19.5h3M11.5 15.5h3M11.5 17.5h3M11.5 19.5h3"/>
</symbol>
<symbol id="business" viewBox="0 0 24 24">
  <path d="M2.5 19.5h19v2h-19zM3.5 8.5h17v11h-17zM1.5 6.5h21v2h-21zM23.5 23.5H.5M23.5 21.5H.5M5.5 8.5v11M10.5 8.5v11M8.5 8.5v11M13.5 8.5v11M15.5 8.5v11M18.5 8.5v11M22.5 6.5h-21L12 .5z"/>
</symbol>
<symbol id="clock" viewBox="0 0 24 24">
  <path d="M15 12.5h-3.5V7"/>
  <path d="M23.5 19.5c0 2.2-1.8 4-4 4h-15c-2.2 0-4-1.8-4-4v-15c0-2.2 1.8-4 4-4h15c2.2 0 4 1.8 4 4v15z"/>
  <circle cx="12" cy="12" r="8.5"/>
</symbol>
<symbol id="couch" viewBox="0 0 24 24">
  <path d="M2.5 21.5v2M21.5 21.5v2M11.5 9.5v8M.5 15.5v4a2 2 0 0 0 2 2h19a2 2 0 0 0 2-2v-4"/>
  <path d="M20.5 15.5v1c0 .551-.448 1-1 1h-15a1 1 0 0 1-1-1v-1M21.5 14.062V13.5a4 4 0 0 0-4-4h-11c-2.21 0-4 1.79-4 4v.577M.5 15.5a1.5 1.5 0 1 1 3 0M23.5 15.5a1.5 1.5 0 1 0-3 0"/>
</symbol>
<symbol id="design" viewBox="0 0 24 24">
  <path d="M14.498 10.5l-3.5 1 1-3.5L19.5.499l2.5 2.5zM17.5 2.499l2.5 2.5M11.998 8l2.5 2.5"/>
  <path d="M22 5.5h1.5v18H.5v-18H12"/>
  <path d="M8 8.5H3.5v12h9v-4h5v4h3V9"/>
  <path d="M3.5 16.5h4V20M12.5 18.5h5M12.5 20.5h5M3.5 13.5H8M16 14.5h4.5M16 12.5h4.5"/>
</symbol>
<symbol id="development" viewBox="0 0 24 24">
  <path d="M9.5 17.5v-10h6a2 2 0 0 1 2 2v3h4v5h-12z"/>
  <path d="M10.851 7.378L3.199.948A1.642 1.642 0 0 0 .885 3.261l8.55 9.772M.5 14.5V17c0 1.312.531 3.031 2.875 3.031s3.344-2.094 3.344-2.094S3.5 19.438 3.5 14.5h-3zM23.5 21.5a2 2 0 0 1-2 2h-11a2 2 0 0 1 0-4h11a2 2 0 0 1 2 2z"/>
  <path d="M.5 2v12.5h3l.958-7.084M11.5 12V9.5H14"/>
  <circle cx="11.5" cy="21.5" r="1"/>
  <circle cx="16" cy="21.5" r="1"/>
  <circle cx="20.5" cy="21.5" r="1"/>
</symbol>
<symbol id="plant" viewBox="0 0 24 24">
  <path d="M15.525 23.5h-5l-2-6h9zM15.045 9.494c-1.377.919-2.086 2.595 0 4.003 1.144 2.859 3.271 2.091 4.53.764s1.917-5.028.987-7.055c-2.01 1.518-3.802 1.145-5.517 2.288zM11.065 5.459c1.481 1.743 2.264 4.035-1.267 5.575-1.616 3.606-4.073 2.271-5.708.345-1.634-1.926-2.259-7.082-.82-9.803 2.656 2.246 5.946 1.703 7.795 3.883z"/>
  <path d="M17.904 11.21c-3.431 1.715-5.146 6.29-5.146 6.29s-1.445-6.703-7.164-11.85"/>
</symbol>
<symbol id="steering" viewBox="0 0 24 24">
  <circle cx="11.5" cy="12.483" r="3.5"/>
  <circle cx="11.5" cy="12.483" r="1.5"/>
  <circle cx="11.5" cy="12.483" r="8.5"/>
  <path d="M11.5 15.983v7.538M11.5 1.5v7.483M8.981 15.028l-5.267 5.268M19.285 4.726l-5.264 5.263M8.994 10.005l-5.28-5.279M19.285 20.296l-5.283-5.282M7.975 12.5H.5M22.52 12.5h-7.517"/>
</symbol>n
<symbol id="watercan" viewBox="0 0 24 24">
  <path d="M8.5 7.5c0-1.656 2.238-3 5-3l2 3h3v11a2 2 0 0 1-2 2h-6a2 2 0 0 1-2-2v-11z"/>
  <path d="M18.5 14.5a5 5 0 1 0 0-10h-5M8.5 17.5L2.292 4.951M.5 5.839l3.585-1.775"/>
</symbol>
<symbol id="comm" viewBox="0 0 24 24">
  <path d="M5.917 16.379c.876-1.866 2.383-4.863 2.826-5.809 1.559-3.323 5.622-2.566 6.382-4.186C15.763 5.027 17.886.5 17.886.5M20.603 1.774l-2.762 5.885c-.868 1.852 2.514 4.06.861 7.584l-.728 1.531"/>
  <path d="M17.886.5l2.715 1.274-1.275 2.715-2.715-1.274z"/>
  <path d="M10.101 17.095l3.034-6.58M16.756 12.213l-2.249 4.909M23.5 21.312c-2.505.521-4.06-1.979-4.06-1.979h-.004s-1.186 2.056-3.621 2.056c-2.334 0-3.615-2.056-3.615-2.056h-.004s-1.185 2.056-3.62 2.056c-2.335 0-3.615-2.056-3.615-2.056h-.004s-2.004 2.542-4.455 2.02M23.5 17.312c-2.505.521-4.06-1.979-4.06-1.979h-.004s-1.186 2.056-3.621 2.056c-2.334 0-3.615-2.056-3.615-2.056h-.004s-1.185 2.056-3.62 2.056c-2.335 0-3.615-2.056-3.615-2.056h-.004s-2.004 2.542-4.455 2.02"/>
</symbol>
<svg xmlns="http://www.w3.org/2000/svg">
<symbol id="designer" viewBox="0 0 24 24">
  <path d="M14.977 10.5a1 1 0 0 1-.928-1.372 6.29 6.29 0 0 0 .451-2.342V3a2.5 2.5 0 1 0-5 0v3.786c0 .802.153 1.597.451 2.343a1 1 0 0 1-.928 1.372H4a1.5 1.5 0 0 0-1.5 1.5v3.5h19V12a1.5 1.5 0 0 0-1.5-1.5h-5.023z"/>
  <path d="M20.5 23.5h-12v-4l-2 4h-3v-8h17zM18.5 18.5v5M16.5 19.5v4M14.5 21v2.5"/>
</symbol>
<symbol id="developer" viewBox="0 0 24 24">
  <path d="M8.5 16.5h2a2 2 0 0 1 2 2c0 3.219-5 .784-5 5h16c0-4.147-5-1.833-5-5a2 2 0 0 1 2-2h2a1 1 0 0 0 1-1v-4a1 1 0 0 0-1-1h-14v6z"/>
  <path d="M1.601 10.5a1 1 0 0 0-.98 1.199A6 6 0 0 0 6.5 16.5h2v-6H1.601zM1 4.5h11.5M12.5.5h6v8h-6z"/>
</symbol>
<symbol id="manager" viewBox="0 0 24 24">
  <path d="M19.5 2.5h2v21h-18v-21h2"/>
  <path d="M7.5 4.5h-2v17h10v-4h4v-13h-2"/>
  <path d="M14.5 2.5a2 2 0 0 0-4 0h-3v3h10v-3h-3zM19.5 17.5l-4 4M8.5 11l.793-.792a.999.999 0 0 1 1.414 0l.086.085a1 1 0 0 0 1.414 0l.086-.085a.999.999 0 0 1 1.414 0l.086.085a1 1 0 0 0 1.414 0L16 9.5M8.5 15l.793-.792a.999.999 0 0 1 1.414 0l.086.085a1 1 0 0 0 1.414 0l.086-.085a.999.999 0 0 1 1.414 0l.086.085a1 1 0 0 0 1.414 0L16 13.5"/>
</symbol>
<symbol id="marketer" viewBox="0 0 24 24">
  <path d="M17.685 10.57c3.168 0 5.759 2.568 5.759 5.736v1.434c0 3.168-2.614 5.76-5.782 5.76H7.101c-5.214 0-4.497-7.182-4.497-7.182s-1.875-.551-2.1-2.115a.361.361 0 0 1 .538-.364c1.592.949 3.24.869 4.937-.06a.358.358 0 0 1 .527.359c-.17 1.369-2.109 2.168-2.109 2.168s-.161 3.586 2.879 3.586c3.944.001 3.238-9.322 10.409-9.322zM14.27 8.607s2.198-2.988 1.709-4.529c-.565-1.777-3.083-1.596-2.916.731-1.207-1.997-3.367-.69-2.803 1.086.49 1.54 4.01 2.712 4.01 2.712zM5.881 6.24S7.85 4.808 7.85 3.747c0-1.224-1.61-1.61-1.969-.122-.358-1.488-1.969-1.102-1.969.122 0 1.062 1.969 2.493 1.969 2.493zM18.84 5.146s3.17.5 4.158-.487c1.141-1.141 0-3.004-1.722-1.949C22.331.989 20.468-.151 19.328.989c-.988.988-.488 4.157-.488 4.157zM19.5 15v-.5M22.729 20.5c-1.5 0-2.645-.359-3.285-1"/>
</symbol>
<symbol id="missing" viewBox="0 0 24 24">
  <path d="M1.5.5h21v23h-21z"/>
  <path d="M3.5 2.5h17v13h-17zM8.5 17.5h2v4h-2z"/>
  <path d="M16.381 4l-2.178 1.783a5.448 5.448 0 0 0-2.201-.443 5.45 5.45 0 0 0-2.177.434L7.66 4c-.909 1.953-.692 3.008.406 4.055.084 1.482 1.887 4.522 3.937 4.522 2.035 0 3.826-2.997 3.935-4.491l.003.005c1.131-1.059 1.359-2.115.44-4.091zM9.695 11.347S7.437 12.813 7.437 15.5M14.31 11.347s2.314 1.466 2.314 4.153M5.5 17v4.5H7M15 17.5h-2.5v2h2v2H12M16 17.5h3M17.5 17.5V22M10.5 7.25v1M13.5 7.25v1"/>
</symbol>
</svg>
</svg>
